PathFileType	4	(X/Y/Z)	C:\Users\u0145647\OneDrive - KU Leuven\KU Leuven\c3d2osim\CP4\T0\Data\Processed\ViconC3D_CP4_2\CP4_T0_13_gapFilled.trc
DataRate	CameraRate	NumFrames	NumMarkers	Units	OrigDataRate	OrigDataStartFrame	OrigNumFrames
100.000000	100.000000	15	47	mm	100.000000	430	573
Frame#	Time	C7			T10			CLAV			STRN			LSHO			RSHO			RBAK			LASI			RASI			LPSI			RPSI			LLAT			RLAT			LF1			LF2			LF3			LTHI			LKNE			LMEK			RF1			RF2			RF3			RTHI			RKNE			RMEK			LT1			LT2			LT3			LTIB			LANK			LMM			RT1			RT2			RT3			RTIB			RANK			RMM			LHEE			LSTL			LLCA			LTOE			LCM5			RHEE			RSTL			RLCA			RTOE			RCM5
		X1	Y1	Z1	X2	Y2	Z2	X3	Y3	Z3	X4	Y4	Z4	X5	Y5	Z5	X6	Y6	Z6	X7	Y7	Z7	X8	Y8	Z8	X9	Y9	Z9	X10	Y10	Z10	X11	Y11	Z11	X12	Y12	Z12	X13	Y13	Z13	X14	Y14	Z14	X15	Y15	Z15	X16	Y16	Z16	X17	Y17	Z17	X18	Y18	Z18	X19	Y19	Z19	X20	Y20	Z20	X21	Y21	Z21	X22	Y22	Z22	X23	Y23	Z23	X24	Y24	Z24	X25	Y25	Z25	X26	Y26	Z26	X27	Y27	Z27	X28	Y28	Z28	X29	Y29	Z29	X30	Y30	Z30	X31	Y31	Z31	X32	Y32	Z32	X33	Y33	Z33	X34	Y34	Z34	X35	Y35	Z35	X36	Y36	Z36	X37	Y37	Z37	X38	Y38	Z38	X39	Y39	Z39	X40	Y40	Z40	X41	Y41	Z41	X42	Y42	Z42	X43	Y43	Z43	X44	Y44	Z44	X45	Y45	Z45	X46	Y46	Z46	X47	Y47	Z47

430	4.29	NaN	NaN	NaN	NaN	NaN	NaN	3122.4	1348.9	17.139	3151.2	1199.5	19.232	3127.2	1400.5	-199.69	3002.7	1384.9	182.75	2944.1	1349.7	90.194	3175.3	928.17	-81.79	3121.8	921.74	110.79	NaN	NaN	NaN	NaN	NaN	NaN	3124.8	989.74	-144.88	3037.5	983.24	138.19	3153.9	651.36	-128	3144.7	695.79	-140.29	3124.2	647.35	-145.36	NaN	NaN	NaN	3109	442.88	-93.295	NaN	NaN	NaN	NaN	NaN	NaN	NaN	NaN	NaN	NaN	NaN	NaN	NaN	NaN	NaN	3275.3	505.57	147.87	NaN	NaN	NaN	2989.5	301.63	-125.55	3042.7	320.34	-101.56	3004	344.34	-125.58	NaN	NaN	NaN	2864.1	99.147	-102.96	2870.2	107.73	-13.915	3253.8	359.79	171.18	3282.7	400.62	155.14	3229.9	406.54	168.4	3266.6	290.7	215.09	3227.7	112.84	166.89	3243.5	124.86	81.284	2806.1	97.379	-61.288	2860.6	77.459	-17.495	2860.1	71.841	-96.469	2976.7	51.524	-49.88	2965.1	41.632	-97.734	3180.1	106.92	126.1	3239.7	89.968	86.374	3231.8	89.037	163.73	3357.4	75.175	131.94	3337.4	64.959	179.91
431	4.3	NaN	NaN	NaN	NaN	NaN	NaN	3135.6	1344.4	17.871	3163.7	1195	19.424	3139.8	1396.4	-198.66	3016.5	1380.9	184.03	2957.3	1346.1	91.785	3189.4	925.03	-81.144	3137	919.94	112.35	NaN	NaN	NaN	NaN	NaN	NaN	3137.3	985.66	-144.01	3051.9	980.73	139.99	3166.1	647.57	-126.01	3157.4	691.99	-138.38	3136.4	643.54	-143.39	NaN	NaN	NaN	3119	439.27	-91.135	NaN	NaN	NaN	NaN	NaN	NaN	NaN	NaN	NaN	NaN	NaN	NaN	NaN	NaN	NaN	3292.6	503.01	147.51	NaN	NaN	NaN	2996.6	300.92	-124.46	3049.7	318.15	-100.01	3011.7	342.97	-124.07	NaN	NaN	NaN	2865.9	101.46	-102.98	2871.5	109.37	-14.082	3281	355.23	171.8	3303.8	397.52	154.75	3251.4	400.61	168.45	3298.5	288.17	213.77	3272.2	106.51	168.8	3282.5	120.28	81.878	2807.3	100.23	-61.556	2863.2	78.942	-18.469	2861.1	73.925	-96.569	2977.2	51.515	-49.895	2965.7	41.971	-97.959	3220	99.039	126.47	3281.2	85.282	87.132	3272.1	83.818	165.91	3398.6	78.292	132.46	3378.6	66.572	181.62
432	4.31	NaN	NaN	NaN	NaN	NaN	NaN	3148.8	1339.8	18.604	3176.3	1190.5	19.686	3152.6	1392.5	-197.73	3030.5	1376.8	185.31	2970.8	1342.4	93.422	3204.1	921.81	-80.273	3152.4	918.23	114.08	NaN	NaN	NaN	NaN	NaN	NaN	3150	981.44	-142.89	3066.4	978.11	141.78	3178.7	643.67	-123.91	3170.5	688.13	-136.31	3149	639.69	-141.34	NaN	NaN	NaN	3128.9	435.81	-88.982	NaN	NaN	NaN	NaN	NaN	NaN	NaN	NaN	NaN	NaN	NaN	NaN	NaN	NaN	NaN	3307.1	499.09	147	NaN	NaN	NaN	3002.6	299.64	-122.79	3056.7	316.26	-98.641	3019.3	342	-122.8	NaN	NaN	NaN	2867.7	103.6	-103.05	2873.7	111.4	-13.794	3303.6	350.83	171.61	3324.8	394.42	154.37	3272.8	394.69	168.51	3324.4	284.14	214.94	3309.5	103.54	166.99	3320.5	116.35	82.167	2809.1	103.75	-61.689	2864	80.941	-18.259	2862.3	76.485	-96.879	2977.8	51.555	-49.896	2965.9	41.741	-97.666	3257.9	91.759	126.82	3321.3	81.588	87.19	3311.3	79.478	166.14	3439.9	81.409	132.97	3420	67.672	182.51
433	4.32	NaN	NaN	NaN	NaN	NaN	NaN	NaN	NaN	NaN	3189.2	1186.1	20.147	3165	1388.7	-196.7	3044.8	1372.6	186.76	2984.2	1338.6	95.059	3219.5	918.47	-79.186	3168.1	916.66	115.94	NaN	NaN	NaN	NaN	NaN	NaN	3163.5	977.38	-141.58	NaN	NaN	NaN	3191.5	639.67	-121.7	3183.8	684.23	-134.1	3161.3	636.07	-138.58	NaN	NaN	NaN	3138.4	432.39	-86.931	NaN	NaN	NaN	NaN	NaN	NaN	NaN	NaN	NaN	NaN	NaN	NaN	NaN	NaN	NaN	3321.6	495.17	146.49	NaN	NaN	NaN	3009.2	299.45	-121.48	3063.3	314.54	-97.316	3026.5	341.01	-121.16	NaN	NaN	NaN	2869.5	106.05	-103.21	2872	113.96	-13.884	3325.8	346.89	170.99	3344.3	391.36	154.1	3291.9	388.59	168.19	3350.3	280.11	216.11	3346.7	100.58	165.17	3356.9	113.65	81.782	2811	107.19	-61.731	2864.5	83.333	-18.357	2863.2	79.238	-96.923	2978.3	51.6	-49.76	2966.5	42.455	-97.991	3297.6	85.74	127.76	3359.9	79.619	86.543	3359.1	74.266	165.27	3478.6	86.333	131.45	3459.1	70.687	182.17
434	4.33	NaN	NaN	NaN	NaN	NaN	NaN	NaN	NaN	NaN	3202.5	1182	20.691	3177.7	1385.1	-195.77	3059.3	1368.2	188.22	2997.9	1334.7	96.997	3235.6	914.9	-77.767	3184	915.07	118.19	NaN	NaN	NaN	NaN	NaN	NaN	3177.8	973.1	-140.3	NaN	NaN	NaN	3204.5	635.55	-119.34	3197.6	680.28	-131.71	3174.8	632.61	-136.77	NaN	NaN	NaN	3147.6	429.16	-84.981	NaN	NaN	NaN	NaN	NaN	NaN	NaN	NaN	NaN	NaN	NaN	NaN	NaN	NaN	NaN	3336.2	491.25	145.98	NaN	NaN	NaN	3015.5	299.21	-120.31	3069.9	312.8	-96.06	3033.5	340.36	-119.47	NaN	NaN	NaN	2871.5	108.68	-103.29	2877.4	115.59	-13.158	3346.5	343.18	170.7	3363	388.69	153.81	3310.4	382.88	167.64	3373.4	277.74	216.17	3384	97.608	163.36	3391.1	113.26	79.578	2812.8	110.54	-61.878	2863.3	86.781	-18.831	2864.2	81.901	-97.131	2978.9	51.585	-49.69	2967.7	42.771	-98.737	3331.8	81.316	124.52	3395.4	77.919	85.033	3368.1	83.005	161.98	3514.1	91.917	129.62	3495.7	74.182	180.36
435	4.34	NaN	NaN	NaN	NaN	NaN	NaN	NaN	NaN	NaN	3216.6	1178.4	21.52	3190.2	1381.6	-194.77	3074.1	1364	189.91	3011.7	1330.7	98.934	3252	911.1	-75.921	3199.9	913.48	120.44	NaN	NaN	NaN	NaN	NaN	NaN	3192.9	968.81	-138.76	NaN	NaN	NaN	3217.9	631.47	-117.01	3211.7	676.3	-129.22	3188.4	629.14	-134.96	NaN	NaN	NaN	3156.9	426.09	-83.128	NaN	NaN	NaN	NaN	NaN	NaN	NaN	NaN	NaN	NaN	NaN	NaN	NaN	NaN	NaN	3350.3	488.05	146.19	NaN	NaN	NaN	3021.5	298.78	-119.2	3076.5	311.33	-94.964	3040.9	340.12	-118.5	NaN	NaN	NaN	2874	111.45	-103.55	NaN	NaN	NaN	3367.9	339.43	170.23	3380.7	386.32	153.94	NaN	NaN	NaN	3396.1	275.65	214.34	3416.3	96.413	160.19	3423	112.78	77.267	2815.4	114.77	-62.168	2865	89.052	-18.894	2866.3	84.676	-97.358	2979.9	51.528	-49.946	2967.6	42.275	-97.764	3366.5	77.067	122.42	3429.1	78.53	81.708	3399.8	82.091	158.71	3547	96.811	126.97	3528.8	77.441	177.91
436	4.35	NaN	NaN	NaN	NaN	NaN	NaN	NaN	NaN	NaN	3230.6	1174.8	22.349	3202.7	1378.3	-193.72	3089	1359.7	191.73	3025.7	1326.7	101.19	3269	907.08	-73.723	NaN	NaN	NaN	NaN	NaN	NaN	NaN	NaN	NaN	3209	964.63	-137	NaN	NaN	NaN	3231.4	627.37	-114.62	3225.9	672.24	-126.71	3202	625.49	-132.84	NaN	NaN	NaN	3166.4	423.14	-81.253	NaN	NaN	NaN	NaN	NaN	NaN	NaN	NaN	NaN	NaN	NaN	NaN	NaN	NaN	NaN	3366.2	486.2	147.3	NaN	NaN	NaN	3028.6	298.69	-117.83	3083.7	310.14	-93.816	3048.6	339.82	-117.22	NaN	NaN	NaN	2876.6	114.51	-103.9	NaN	NaN	NaN	3379.5	338.99	169.41	3397.6	384.47	153.64	NaN	NaN	NaN	3418.9	273.56	212.5	3435.4	97.488	158.14	3452.1	113.46	73.271	2818.5	119.67	-62.907	2863.6	93.422	-19.233	2868.5	87.914	-98.153	2980.3	51.804	-49.901	2968.5	42.446	-97.774	3396.3	75.463	116.39	3459.3	79.731	77.462	NaN	NaN	NaN	3576.2	101.02	124.04	3558.5	80.287	174.25
437	4.36	NaN	NaN	NaN	NaN	NaN	NaN	NaN	NaN	NaN	NaN	NaN	NaN	NaN	NaN	NaN	NaN	NaN	NaN	NaN	NaN	NaN	NaN	NaN	NaN	NaN	NaN	NaN	NaN	NaN	NaN	NaN	NaN	NaN	NaN	NaN	NaN	NaN	NaN	NaN	NaN	NaN	NaN	NaN	NaN	NaN	NaN	NaN	NaN	NaN	NaN	NaN	NaN	NaN	NaN	NaN	NaN	NaN	NaN	NaN	NaN	NaN	NaN	NaN	NaN	NaN	NaN	NaN	NaN	NaN	NaN	NaN	NaN	NaN	NaN	NaN	NaN	NaN	NaN	NaN	NaN	NaN	NaN	NaN	NaN	NaN	NaN	NaN	NaN	NaN	NaN	NaN	NaN	NaN	NaN	NaN	NaN	NaN	NaN	NaN	NaN	NaN	NaN	NaN	NaN	NaN	NaN	NaN	NaN	NaN	NaN	NaN	NaN	NaN	NaN	NaN	NaN	NaN	NaN	NaN	NaN	NaN	NaN	NaN	NaN	NaN	NaN	NaN	NaN	NaN	NaN	NaN	NaN	NaN	NaN	NaN	NaN	NaN	NaN	NaN	NaN	NaN
438	4.37	NaN	NaN	NaN	NaN	NaN	NaN	NaN	NaN	NaN	NaN	NaN	NaN	NaN	NaN	NaN	NaN	NaN	NaN	NaN	NaN	NaN	NaN	NaN	NaN	NaN	NaN	NaN	NaN	NaN	NaN	NaN	NaN	NaN	NaN	NaN	NaN	NaN	NaN	NaN	NaN	NaN	NaN	NaN	NaN	NaN	NaN	NaN	NaN	NaN	NaN	NaN	NaN	NaN	NaN	NaN	NaN	NaN	NaN	NaN	NaN	NaN	NaN	NaN	NaN	NaN	NaN	NaN	NaN	NaN	NaN	NaN	NaN	NaN	NaN	NaN	NaN	NaN	NaN	NaN	NaN	NaN	NaN	NaN	NaN	NaN	NaN	NaN	NaN	NaN	NaN	NaN	NaN	NaN	NaN	NaN	NaN	NaN	NaN	NaN	NaN	NaN	NaN	NaN	NaN	NaN	NaN	NaN	NaN	NaN	NaN	NaN	NaN	NaN	NaN	NaN	NaN	NaN	NaN	NaN	NaN	NaN	NaN	NaN	NaN	NaN	NaN	NaN	NaN	NaN	NaN	NaN	NaN	NaN	NaN	NaN	NaN	NaN	NaN	NaN	NaN	NaN
439	4.38	NaN	NaN	NaN	NaN	NaN	NaN	NaN	NaN	NaN	NaN	NaN	NaN	NaN	NaN	NaN	NaN	NaN	NaN	NaN	NaN	NaN	NaN	NaN	NaN	NaN	NaN	NaN	NaN	NaN	NaN	NaN	NaN	NaN	NaN	NaN	NaN	NaN	NaN	NaN	NaN	NaN	NaN	NaN	NaN	NaN	NaN	NaN	NaN	NaN	NaN	NaN	NaN	NaN	NaN	NaN	NaN	NaN	NaN	NaN	NaN	NaN	NaN	NaN	NaN	NaN	NaN	NaN	NaN	NaN	NaN	NaN	NaN	NaN	NaN	NaN	NaN	NaN	NaN	NaN	NaN	NaN	NaN	NaN	NaN	NaN	NaN	NaN	NaN	NaN	NaN	NaN	NaN	NaN	NaN	NaN	NaN	NaN	NaN	NaN	NaN	NaN	NaN	NaN	NaN	NaN	NaN	NaN	NaN	NaN	NaN	NaN	NaN	NaN	NaN	NaN	NaN	NaN	NaN	NaN	NaN	NaN	NaN	NaN	NaN	NaN	NaN	NaN	NaN	NaN	NaN	NaN	NaN	NaN	NaN	NaN	NaN	NaN	NaN	NaN	NaN	NaN
440	4.39	NaN	NaN	NaN	NaN	NaN	NaN	NaN	NaN	NaN	NaN	NaN	NaN	NaN	NaN	NaN	NaN	NaN	NaN	NaN	NaN	NaN	NaN	NaN	NaN	NaN	NaN	NaN	NaN	NaN	NaN	NaN	NaN	NaN	NaN	NaN	NaN	NaN	NaN	NaN	NaN	NaN	NaN	NaN	NaN	NaN	NaN	NaN	NaN	NaN	NaN	NaN	NaN	NaN	NaN	NaN	NaN	NaN	NaN	NaN	NaN	NaN	NaN	NaN	NaN	NaN	NaN	NaN	NaN	NaN	NaN	NaN	NaN	NaN	NaN	NaN	NaN	NaN	NaN	NaN	NaN	NaN	NaN	NaN	NaN	NaN	NaN	NaN	NaN	NaN	NaN	NaN	NaN	NaN	NaN	NaN	NaN	NaN	NaN	NaN	NaN	NaN	NaN	NaN	NaN	NaN	NaN	NaN	NaN	NaN	NaN	NaN	NaN	NaN	NaN	NaN	NaN	NaN	NaN	NaN	NaN	NaN	NaN	NaN	NaN	NaN	NaN	NaN	NaN	NaN	NaN	NaN	NaN	NaN	NaN	NaN	NaN	NaN	NaN	NaN	NaN	NaN
441	4.4	NaN	NaN	NaN	NaN	NaN	NaN	NaN	NaN	NaN	NaN	NaN	NaN	NaN	NaN	NaN	NaN	NaN	NaN	NaN	NaN	NaN	NaN	NaN	NaN	NaN	NaN	NaN	NaN	NaN	NaN	NaN	NaN	NaN	NaN	NaN	NaN	NaN	NaN	NaN	NaN	NaN	NaN	NaN	NaN	NaN	NaN	NaN	NaN	NaN	NaN	NaN	NaN	NaN	NaN	NaN	NaN	NaN	NaN	NaN	NaN	NaN	NaN	NaN	NaN	NaN	NaN	NaN	NaN	NaN	NaN	NaN	NaN	NaN	NaN	NaN	NaN	NaN	NaN	NaN	NaN	NaN	NaN	NaN	NaN	NaN	NaN	NaN	NaN	NaN	NaN	NaN	NaN	NaN	NaN	NaN	NaN	NaN	NaN	NaN	NaN	NaN	NaN	NaN	NaN	NaN	NaN	NaN	NaN	NaN	NaN	NaN	NaN	NaN	NaN	NaN	NaN	NaN	NaN	NaN	NaN	NaN	NaN	NaN	NaN	NaN	NaN	NaN	NaN	NaN	NaN	NaN	NaN	NaN	NaN	NaN	NaN	NaN	NaN	NaN	NaN	NaN
442	4.41	NaN	NaN	NaN	NaN	NaN	NaN	NaN	NaN	NaN	NaN	NaN	NaN	NaN	NaN	NaN	NaN	NaN	NaN	NaN	NaN	NaN	NaN	NaN	NaN	NaN	NaN	NaN	NaN	NaN	NaN	NaN	NaN	NaN	NaN	NaN	NaN	NaN	NaN	NaN	NaN	NaN	NaN	NaN	NaN	NaN	NaN	NaN	NaN	NaN	NaN	NaN	NaN	NaN	NaN	NaN	NaN	NaN	NaN	NaN	NaN	NaN	NaN	NaN	NaN	NaN	NaN	NaN	NaN	NaN	NaN	NaN	NaN	NaN	NaN	NaN	NaN	NaN	NaN	NaN	NaN	NaN	NaN	NaN	NaN	NaN	NaN	NaN	NaN	NaN	NaN	NaN	NaN	NaN	NaN	NaN	NaN	NaN	NaN	NaN	NaN	NaN	NaN	NaN	NaN	NaN	NaN	NaN	NaN	NaN	NaN	NaN	NaN	NaN	NaN	NaN	NaN	NaN	NaN	NaN	NaN	NaN	NaN	NaN	NaN	NaN	NaN	NaN	NaN	NaN	NaN	NaN	NaN	NaN	NaN	NaN	NaN	NaN	NaN	NaN	NaN	NaN
443	4.42	NaN	NaN	NaN	NaN	NaN	NaN	NaN	NaN	NaN	NaN	NaN	NaN	NaN	NaN	NaN	NaN	NaN	NaN	NaN	NaN	NaN	NaN	NaN	NaN	NaN	NaN	NaN	NaN	NaN	NaN	NaN	NaN	NaN	NaN	NaN	NaN	NaN	NaN	NaN	NaN	NaN	NaN	NaN	NaN	NaN	NaN	NaN	NaN	NaN	NaN	NaN	NaN	NaN	NaN	NaN	NaN	NaN	NaN	NaN	NaN	NaN	NaN	NaN	NaN	NaN	NaN	NaN	NaN	NaN	NaN	NaN	NaN	NaN	NaN	NaN	NaN	NaN	NaN	NaN	NaN	NaN	NaN	NaN	NaN	NaN	NaN	NaN	NaN	NaN	NaN	NaN	NaN	NaN	NaN	NaN	NaN	NaN	NaN	NaN	NaN	NaN	NaN	NaN	NaN	NaN	NaN	NaN	NaN	NaN	NaN	NaN	NaN	NaN	NaN	NaN	NaN	NaN	NaN	NaN	NaN	NaN	NaN	NaN	NaN	NaN	NaN	NaN	NaN	NaN	NaN	NaN	NaN	NaN	NaN	NaN	NaN	NaN	NaN	NaN	NaN	NaN
444	4.43	NaN	NaN	NaN	NaN	NaN	NaN	NaN	NaN	NaN	NaN	NaN	NaN	NaN	NaN	NaN	NaN	NaN	NaN	NaN	NaN	NaN	NaN	NaN	NaN	NaN	NaN	NaN	NaN	NaN	NaN	NaN	NaN	NaN	NaN	NaN	NaN	NaN	NaN	NaN	NaN	NaN	NaN	NaN	NaN	NaN	NaN	NaN	NaN	NaN	NaN	NaN	NaN	NaN	NaN	NaN	NaN	NaN	NaN	NaN	NaN	NaN	NaN	NaN	NaN	NaN	NaN	NaN	NaN	NaN	NaN	NaN	NaN	NaN	NaN	NaN	NaN	NaN	NaN	NaN	NaN	NaN	NaN	NaN	NaN	NaN	NaN	NaN	NaN	NaN	NaN	NaN	NaN	NaN	NaN	NaN	NaN	NaN	NaN	NaN	NaN	NaN	NaN	NaN	NaN	NaN	NaN	NaN	NaN	NaN	NaN	NaN	NaN	NaN	NaN	NaN	NaN	NaN	NaN	NaN	NaN	NaN	NaN	NaN	NaN	NaN	NaN	NaN	NaN	NaN	NaN	NaN	NaN	NaN	NaN	NaN	NaN	NaN	NaN	NaN	NaN	NaN
